<?xml version="1.0" encoding="utf-8" standalone="no"?>
<!DOCTYPE svg PUBLIC "-//W3C//DTD SVG 1.1//EN"
  "http://www.w3.org/Graphics/SVG/1.1/DTD/svg11.dtd">
<!-- Created with matplotlib (https://matplotlib.org/) -->
<svg height="345.6pt" version="1.1" viewBox="0 0 460.8 345.6" width="460.8pt" xmlns="http://www.w3.org/2000/svg" xmlns:xlink="http://www.w3.org/1999/xlink">
 <defs>
  <style type="text/css">
*{stroke-linecap:butt;stroke-linejoin:round;}
  </style>
 </defs>
 <g id="figure_1">
  <g id="patch_1">
   <path d="M 0 345.6 
L 460.8 345.6 
L 460.8 0 
L 0 0 
z
" style="fill:#ffffff;"/>
  </g>
  <g id="axes_1">
   <g id="LineCollection_1">
    <path clip-path="url(#pd0dd81b47b)" d="M 92.672131 193.681261 
L 151.567743 161.391689 
" style="fill:none;stroke:#000000;"/>
    <path clip-path="url(#pd0dd81b47b)" d="M 92.672131 193.681261 
L 67.081398 207.016526 
" style="fill:none;stroke:#000000;"/>
    <path clip-path="url(#pd0dd81b47b)" d="M 151.567743 161.391689 
L 163.741016 134.499029 
" style="fill:none;stroke:#000000;"/>
    <path clip-path="url(#pd0dd81b47b)" d="M 151.567743 161.391689 
L 183.133545 119.312278 
" style="fill:none;stroke:#000000;"/>
    <path clip-path="url(#pd0dd81b47b)" d="M 151.567743 161.391689 
L 161.76476 217.344029 
" style="fill:none;stroke:#000000;"/>
    <path clip-path="url(#pd0dd81b47b)" d="M 151.567743 161.391689 
L 126.115504 135.019557 
" style="fill:none;stroke:#000000;"/>
    <path clip-path="url(#pd0dd81b47b)" d="M 163.741016 134.499029 
L 183.133545 119.312278 
" style="fill:none;stroke:#000000;"/>
    <path clip-path="url(#pd0dd81b47b)" d="M 201.29207 55.668098 
L 183.133545 119.312278 
" style="fill:none;stroke:#000000;"/>
    <path clip-path="url(#pd0dd81b47b)" d="M 183.133545 119.312278 
L 210.445875 113.995 
" style="fill:none;stroke:#000000;"/>
    <path clip-path="url(#pd0dd81b47b)" d="M 178.593398 293.387902 
L 161.76476 217.344029 
" style="fill:none;stroke:#000000;"/>
   </g>
   <g id="text_1">
    <g id="patch_2">
     <path clip-path="url(#pd0dd81b47b)" d="M 118.523902 184.871942 
L 130.23824 178.449546 
Q 131.816593 177.584213 130.95126 176.00586 
L 128.159658 170.914027 
Q 127.294325 169.335674 125.715972 170.201008 
L 114.001634 176.623404 
Q 112.423281 177.488737 113.288614 179.06709 
L 116.080216 184.158923 
Q 116.945549 185.737276 118.523902 184.871942 
z
" style="fill:#ffffff;stroke:#ffffff;stroke-linejoin:miter;"/>
    </g>
    <g clip-path="url(#pd0dd81b47b)">
     <!-- 0.16 -->
     <defs>
      <path d="M 31.78125 66.40625 
Q 24.171875 66.40625 20.328125 58.90625 
Q 16.5 51.421875 16.5 36.375 
Q 16.5 21.390625 20.328125 13.890625 
Q 24.171875 6.390625 31.78125 6.390625 
Q 39.453125 6.390625 43.28125 13.890625 
Q 47.125 21.390625 47.125 36.375 
Q 47.125 51.421875 43.28125 58.90625 
Q 39.453125 66.40625 31.78125 66.40625 
z
M 31.78125 74.21875 
Q 44.046875 74.21875 50.515625 64.515625 
Q 56.984375 54.828125 56.984375 36.375 
Q 56.984375 17.96875 50.515625 8.265625 
Q 44.046875 -1.421875 31.78125 -1.421875 
Q 19.53125 -1.421875 13.0625 8.265625 
Q 6.59375 17.96875 6.59375 36.375 
Q 6.59375 54.828125 13.0625 64.515625 
Q 19.53125 74.21875 31.78125 74.21875 
z
" id="DejaVuSans-48"/>
      <path d="M 10.6875 12.40625 
L 21 12.40625 
L 21 0 
L 10.6875 0 
z
" id="DejaVuSans-46"/>
      <path d="M 12.40625 8.296875 
L 28.515625 8.296875 
L 28.515625 63.921875 
L 10.984375 60.40625 
L 10.984375 69.390625 
L 28.421875 72.90625 
L 38.28125 72.90625 
L 38.28125 8.296875 
L 54.390625 8.296875 
L 54.390625 0 
L 12.40625 0 
z
" id="DejaVuSans-49"/>
      <path d="M 33.015625 40.375 
Q 26.375 40.375 22.484375 35.828125 
Q 18.609375 31.296875 18.609375 23.390625 
Q 18.609375 15.53125 22.484375 10.953125 
Q 26.375 6.390625 33.015625 6.390625 
Q 39.65625 6.390625 43.53125 10.953125 
Q 47.40625 15.53125 47.40625 23.390625 
Q 47.40625 31.296875 43.53125 35.828125 
Q 39.65625 40.375 33.015625 40.375 
z
M 52.59375 71.296875 
L 52.59375 62.3125 
Q 48.875 64.0625 45.09375 64.984375 
Q 41.3125 65.921875 37.59375 65.921875 
Q 27.828125 65.921875 22.671875 59.328125 
Q 17.53125 52.734375 16.796875 39.40625 
Q 19.671875 43.65625 24.015625 45.921875 
Q 28.375 48.1875 33.59375 48.1875 
Q 44.578125 48.1875 50.953125 41.515625 
Q 57.328125 34.859375 57.328125 23.390625 
Q 57.328125 12.15625 50.6875 5.359375 
Q 44.046875 -1.421875 33.015625 -1.421875 
Q 20.359375 -1.421875 13.671875 8.265625 
Q 6.984375 17.96875 6.984375 36.375 
Q 6.984375 53.65625 15.1875 63.9375 
Q 23.390625 74.21875 37.203125 74.21875 
Q 40.921875 74.21875 44.703125 73.484375 
Q 48.484375 72.75 52.59375 71.296875 
z
" id="DejaVuSans-54"/>
     </defs>
     <g style="opacity:0.5;" transform="translate(117.058694 182.199429)rotate(-28.733795)scale(0.06 -0.06)">
      <use xlink:href="#DejaVuSans-48"/>
      <use x="63.623047" xlink:href="#DejaVuSans-46"/>
      <use x="95.410156" xlink:href="#DejaVuSans-49"/>
      <use x="159.033203" xlink:href="#DejaVuSans-54"/>
     </g>
    </g>
   </g>
   <g id="text_2">
    <g id="patch_3">
     <path clip-path="url(#pd0dd81b47b)" d="M 76.126643 207.606795 
L 87.973978 201.433179 
Q 89.570251 200.601365 88.738438 199.005093 
L 86.054972 193.855451 
Q 85.223159 192.259178 83.626886 193.090992 
L 71.779551 199.264608 
Q 70.183278 200.096421 71.015091 201.692694 
L 73.698557 206.842336 
Q 74.53037 208.438608 76.126643 207.606795 
z
" style="fill:#ffffff;stroke:#ffffff;stroke-linejoin:miter;"/>
    </g>
    <g clip-path="url(#pd0dd81b47b)">
     <!-- 0.57 -->
     <defs>
      <path d="M 10.796875 72.90625 
L 49.515625 72.90625 
L 49.515625 64.59375 
L 19.828125 64.59375 
L 19.828125 46.734375 
Q 21.96875 47.46875 24.109375 47.828125 
Q 26.265625 48.1875 28.421875 48.1875 
Q 40.625 48.1875 47.75 41.5 
Q 54.890625 34.8125 54.890625 23.390625 
Q 54.890625 11.625 47.5625 5.09375 
Q 40.234375 -1.421875 26.90625 -1.421875 
Q 22.3125 -1.421875 17.546875 -0.640625 
Q 12.796875 0.140625 7.71875 1.703125 
L 7.71875 11.625 
Q 12.109375 9.234375 16.796875 8.0625 
Q 21.484375 6.890625 26.703125 6.890625 
Q 35.15625 6.890625 40.078125 11.328125 
Q 45.015625 15.765625 45.015625 23.390625 
Q 45.015625 31 40.078125 35.4375 
Q 35.15625 39.890625 26.703125 39.890625 
Q 22.75 39.890625 18.8125 39.015625 
Q 14.890625 38.140625 10.796875 36.28125 
z
" id="DejaVuSans-53"/>
      <path d="M 8.203125 72.90625 
L 55.078125 72.90625 
L 55.078125 68.703125 
L 28.609375 0 
L 18.3125 0 
L 43.21875 64.59375 
L 8.203125 64.59375 
z
" id="DejaVuSans-55"/>
     </defs>
     <g style="opacity:0.5;" transform="translate(74.718192 204.903939)rotate(-27.523903)scale(0.06 -0.06)">
      <use xlink:href="#DejaVuSans-48"/>
      <use x="63.623047" xlink:href="#DejaVuSans-46"/>
      <use x="95.410156" xlink:href="#DejaVuSans-53"/>
      <use x="159.033203" xlink:href="#DejaVuSans-55"/>
     </g>
    </g>
   </g>
   <g id="text_3">
    <g id="patch_4">
     <path clip-path="url(#pd0dd81b47b)" d="M 159.184697 155.970238 
L 164.693837 143.799688 
Q 165.436121 142.159867 163.7963 141.417582 
L 158.506167 139.022943 
Q 156.866346 138.280659 156.124062 139.92048 
L 150.614922 152.09103 
Q 149.872638 153.730851 151.512459 154.473135 
L 156.802592 156.867775 
Q 158.442413 157.610059 159.184697 155.970238 
z
" style="fill:#ffffff;stroke:#ffffff;stroke-linejoin:miter;"/>
    </g>
    <g clip-path="url(#pd0dd81b47b)">
     <!-- 0.75 -->
     <g style="opacity:0.5;" transform="translate(156.408104 154.713381)rotate(-65.645566)scale(0.06 -0.06)">
      <use xlink:href="#DejaVuSans-48"/>
      <use x="63.623047" xlink:href="#DejaVuSans-46"/>
      <use x="95.410156" xlink:href="#DejaVuSans-55"/>
      <use x="159.033203" xlink:href="#DejaVuSans-53"/>
     </g>
    </g>
   </g>
   <g id="text_4">
    <g id="patch_5">
     <path clip-path="url(#pd0dd81b47b)" d="M 167.104806 148.517773 
L 175.121446 137.831034 
Q 176.201582 136.391136 174.761685 135.311 
L 170.116516 131.826434 
Q 168.676618 130.746297 167.596481 132.186194 
L 159.579842 142.872933 
Q 158.499705 144.312831 159.939603 145.392967 
L 164.584772 148.877533 
Q 166.024669 149.95767 167.104806 148.517773 
z
" style="fill:#ffffff;stroke:#ffffff;stroke-linejoin:miter;"/>
    </g>
    <g clip-path="url(#pd0dd81b47b)">
     <!-- 0.49 -->
     <defs>
      <path d="M 37.796875 64.3125 
L 12.890625 25.390625 
L 37.796875 25.390625 
z
M 35.203125 72.90625 
L 47.609375 72.90625 
L 47.609375 25.390625 
L 58.015625 25.390625 
L 58.015625 17.1875 
L 47.609375 17.1875 
L 47.609375 0 
L 37.796875 0 
L 37.796875 17.1875 
L 4.890625 17.1875 
L 4.890625 26.703125 
z
" id="DejaVuSans-52"/>
      <path d="M 10.984375 1.515625 
L 10.984375 10.5 
Q 14.703125 8.734375 18.5 7.8125 
Q 22.3125 6.890625 25.984375 6.890625 
Q 35.75 6.890625 40.890625 13.453125 
Q 46.046875 20.015625 46.78125 33.40625 
Q 43.953125 29.203125 39.59375 26.953125 
Q 35.25 24.703125 29.984375 24.703125 
Q 19.046875 24.703125 12.671875 31.3125 
Q 6.296875 37.9375 6.296875 49.421875 
Q 6.296875 60.640625 12.9375 67.421875 
Q 19.578125 74.21875 30.609375 74.21875 
Q 43.265625 74.21875 49.921875 64.515625 
Q 56.59375 54.828125 56.59375 36.375 
Q 56.59375 19.140625 48.40625 8.859375 
Q 40.234375 -1.421875 26.421875 -1.421875 
Q 22.703125 -1.421875 18.890625 -0.6875 
Q 15.09375 0.046875 10.984375 1.515625 
z
M 30.609375 32.421875 
Q 37.25 32.421875 41.125 36.953125 
Q 45.015625 41.5 45.015625 49.421875 
Q 45.015625 57.28125 41.125 61.84375 
Q 37.25 66.40625 30.609375 66.40625 
Q 23.96875 66.40625 20.09375 61.84375 
Q 16.21875 57.28125 16.21875 49.421875 
Q 16.21875 41.5 20.09375 36.953125 
Q 23.96875 32.421875 30.609375 32.421875 
z
" id="DejaVuSans-57"/>
     </defs>
     <g style="opacity:0.5;" transform="translate(164.666729 146.688854)rotate(-53.124662)scale(0.06 -0.06)">
      <use xlink:href="#DejaVuSans-48"/>
      <use x="63.623047" xlink:href="#DejaVuSans-46"/>
      <use x="95.410156" xlink:href="#DejaVuSans-52"/>
      <use x="159.033203" xlink:href="#DejaVuSans-57"/>
     </g>
    </g>
   </g>
   <g id="text_5">
    <g id="patch_6">
     <path clip-path="url(#pd0dd81b47b)" d="M 151.183639 185.517517 
L 152.894417 194.904775 
Q 153.217142 196.675608 154.987975 196.352883 
L 160.700755 195.311759 
Q 162.471588 194.989034 162.148863 193.218202 
L 160.438085 183.830943 
Q 160.11536 182.060111 158.344527 182.382835 
L 152.631747 183.423959 
Q 150.860914 183.746684 151.183639 185.517517 
z
" style="fill:#ffffff;stroke:#ffffff;stroke-linejoin:miter;"/>
    </g>
    <g clip-path="url(#pd0dd81b47b)">
     <!-- 0.5 -->
     <g style="opacity:0.5;" transform="translate(154.182065 184.97107)rotate(-280.3285)scale(0.06 -0.06)">
      <use xlink:href="#DejaVuSans-48"/>
      <use x="63.623047" xlink:href="#DejaVuSans-46"/>
      <use x="95.410156" xlink:href="#DejaVuSans-53"/>
     </g>
    </g>
   </g>
   <g id="text_6">
    <g id="patch_7">
     <path clip-path="url(#pd0dd81b47b)" d="M 130.818607 146.665573 
L 140.095973 156.278241 
Q 141.345976 157.573421 142.641156 156.323418 
L 146.819462 152.290857 
Q 148.114643 151.040854 146.86464 149.745673 
L 137.587274 140.133005 
Q 136.337271 138.837825 135.042091 140.087828 
L 130.863784 144.120389 
Q 129.568604 145.370392 130.818607 146.665573 
z
" style="fill:#ffffff;stroke:#ffffff;stroke-linejoin:miter;"/>
    </g>
    <g clip-path="url(#pd0dd81b47b)">
     <!-- 0.41 -->
     <g style="opacity:0.5;" transform="translate(133.011644 144.549031)rotate(-313.983094)scale(0.06 -0.06)">
      <use xlink:href="#DejaVuSans-48"/>
      <use x="63.623047" xlink:href="#DejaVuSans-46"/>
      <use x="95.410156" xlink:href="#DejaVuSans-52"/>
      <use x="159.033203" xlink:href="#DejaVuSans-49"/>
     </g>
    </g>
   </g>
   <g id="text_7">
    <g id="patch_8">
     <path clip-path="url(#pd0dd81b47b)" d="M 171.078258 134.727134 
L 181.596203 126.490281 
Q 183.013357 125.380474 181.90355 123.963319 
L 178.323264 119.391519 
Q 177.213457 117.974365 175.796302 119.084172 
L 165.278358 127.321025 
Q 163.861203 128.430833 164.971011 129.847987 
L 168.551296 134.419787 
Q 169.661104 135.836942 171.078258 134.727134 
z
" style="fill:#ffffff;stroke:#ffffff;stroke-linejoin:miter;"/>
    </g>
    <g clip-path="url(#pd0dd81b47b)">
     <!-- 0.43 -->
     <defs>
      <path d="M 40.578125 39.3125 
Q 47.65625 37.796875 51.625 33 
Q 55.609375 28.21875 55.609375 21.1875 
Q 55.609375 10.40625 48.1875 4.484375 
Q 40.765625 -1.421875 27.09375 -1.421875 
Q 22.515625 -1.421875 17.65625 -0.515625 
Q 12.796875 0.390625 7.625 2.203125 
L 7.625 11.71875 
Q 11.71875 9.328125 16.59375 8.109375 
Q 21.484375 6.890625 26.8125 6.890625 
Q 36.078125 6.890625 40.9375 10.546875 
Q 45.796875 14.203125 45.796875 21.1875 
Q 45.796875 27.640625 41.28125 31.265625 
Q 36.765625 34.90625 28.71875 34.90625 
L 20.21875 34.90625 
L 20.21875 43.015625 
L 29.109375 43.015625 
Q 36.375 43.015625 40.234375 45.921875 
Q 44.09375 48.828125 44.09375 54.296875 
Q 44.09375 59.90625 40.109375 62.90625 
Q 36.140625 65.921875 28.71875 65.921875 
Q 24.65625 65.921875 20.015625 65.03125 
Q 15.375 64.15625 9.8125 62.3125 
L 9.8125 71.09375 
Q 15.4375 72.65625 20.34375 73.4375 
Q 25.25 74.21875 29.59375 74.21875 
Q 40.828125 74.21875 47.359375 69.109375 
Q 53.90625 64.015625 53.90625 55.328125 
Q 53.90625 49.265625 50.4375 45.09375 
Q 46.96875 40.921875 40.578125 39.3125 
z
" id="DejaVuSans-51"/>
     </defs>
     <g style="opacity:0.5;" transform="translate(169.1991 132.327567)rotate(-38.065342)scale(0.06 -0.06)">
      <use xlink:href="#DejaVuSans-48"/>
      <use x="63.623047" xlink:href="#DejaVuSans-46"/>
      <use x="95.410156" xlink:href="#DejaVuSans-52"/>
      <use x="159.033203" xlink:href="#DejaVuSans-51"/>
     </g>
    </g>
   </g>
   <g id="text_8">
    <g id="patch_9">
     <path clip-path="url(#pd0dd81b47b)" d="M 194.903084 95.204004 
L 198.568423 82.357285 
Q 199.062279 80.626358 197.331353 80.132502 
L 191.747312 78.539301 
Q 190.016386 78.045445 189.52253 79.776372 
L 185.857191 92.623091 
Q 185.363335 94.354017 187.094261 94.847873 
L 192.678302 96.441074 
Q 194.409228 96.93493 194.903084 95.204004 
z
" style="fill:#ffffff;stroke:#ffffff;stroke-linejoin:miter;"/>
    </g>
    <g clip-path="url(#pd0dd81b47b)">
     <!-- 0.23 -->
     <defs>
      <path d="M 19.1875 8.296875 
L 53.609375 8.296875 
L 53.609375 0 
L 7.328125 0 
L 7.328125 8.296875 
Q 12.9375 14.109375 22.625 23.890625 
Q 32.328125 33.6875 34.8125 36.53125 
Q 39.546875 41.84375 41.421875 45.53125 
Q 43.3125 49.21875 43.3125 52.78125 
Q 43.3125 58.59375 39.234375 62.25 
Q 35.15625 65.921875 28.609375 65.921875 
Q 23.96875 65.921875 18.8125 64.3125 
Q 13.671875 62.703125 7.8125 59.421875 
L 7.8125 69.390625 
Q 13.765625 71.78125 18.9375 73 
Q 24.125 74.21875 28.421875 74.21875 
Q 39.75 74.21875 46.484375 68.546875 
Q 53.21875 62.890625 53.21875 53.421875 
Q 53.21875 48.921875 51.53125 44.890625 
Q 49.859375 40.875 45.40625 35.40625 
Q 44.1875 33.984375 37.640625 27.21875 
Q 31.109375 20.453125 19.1875 8.296875 
z
" id="DejaVuSans-50"/>
     </defs>
     <g style="opacity:0.5;" transform="translate(191.972229 94.367792)rotate(-74.075852)scale(0.06 -0.06)">
      <use xlink:href="#DejaVuSans-48"/>
      <use x="63.623047" xlink:href="#DejaVuSans-46"/>
      <use x="95.410156" xlink:href="#DejaVuSans-50"/>
      <use x="159.033203" xlink:href="#DejaVuSans-51"/>
     </g>
    </g>
   </g>
   <g id="text_9">
    <g id="patch_10">
     <path clip-path="url(#pd0dd81b47b)" d="M 191.13193 122.546862 
L 204.245109 119.993934 
Q 206.011937 119.649961 205.667964 117.883132 
L 204.558291 112.183271 
Q 204.214318 110.416442 202.447489 110.760416 
L 189.334311 113.313344 
Q 187.567482 113.657317 187.911456 115.424145 
L 189.021128 121.124007 
Q 189.365102 122.890835 191.13193 122.546862 
z
" style="fill:#ffffff;stroke:#ffffff;stroke-linejoin:miter;"/>
    </g>
    <g clip-path="url(#pd0dd81b47b)">
     <!-- 0.56 -->
     <g style="opacity:0.5;" transform="translate(190.549504 119.555217)rotate(-11.016773)scale(0.06 -0.06)">
      <use xlink:href="#DejaVuSans-48"/>
      <use x="63.623047" xlink:href="#DejaVuSans-46"/>
      <use x="95.410156" xlink:href="#DejaVuSans-53"/>
      <use x="159.033203" xlink:href="#DejaVuSans-54"/>
     </g>
    </g>
   </g>
   <g id="text_10">
    <g id="patch_11">
     <path clip-path="url(#pd0dd81b47b)" d="M 164.143444 249.860362 
L 167.030056 262.904149 
Q 167.418989 264.661628 169.176468 264.272695 
L 174.846167 263.017981 
Q 176.603646 262.629048 176.214713 260.871569 
L 173.328101 247.827782 
Q 172.939168 246.070304 171.181689 246.459237 
L 165.51199 247.713951 
Q 163.754511 248.102884 164.143444 249.860362 
z
" style="fill:#ffffff;stroke:#ffffff;stroke-linejoin:miter;"/>
    </g>
    <g clip-path="url(#pd0dd81b47b)">
     <!-- 0.13 -->
     <g style="opacity:0.5;" transform="translate(167.119258 249.20181)rotate(-282.478538)scale(0.06 -0.06)">
      <use xlink:href="#DejaVuSans-48"/>
      <use x="63.623047" xlink:href="#DejaVuSans-46"/>
      <use x="95.410156" xlink:href="#DejaVuSans-49"/>
      <use x="159.033203" xlink:href="#DejaVuSans-51"/>
     </g>
    </g>
   </g>
   <g id="PathCollection_1">
    <defs>
     <path d="M 0 5.477226 
C 1.452577 5.477226 2.845856 4.900111 3.872983 3.872983 
C 4.900111 2.845856 5.477226 1.452577 5.477226 0 
C 5.477226 -1.452577 4.900111 -2.845856 3.872983 -3.872983 
C 2.845856 -4.900111 1.452577 -5.477226 0 -5.477226 
C -1.452577 -5.477226 -2.845856 -4.900111 -3.872983 -3.872983 
C -4.900111 -2.845856 -5.477226 -1.452577 -5.477226 0 
C -5.477226 1.452577 -4.900111 2.845856 -3.872983 3.872983 
C -2.845856 4.900111 -1.452577 5.477226 0 5.477226 
z
" id="m8608184cfd" style="stroke:#1f78b4;"/>
    </defs>
    <g clip-path="url(#pd0dd81b47b)">
     <use style="fill:#1f78b4;stroke:#1f78b4;" x="92.672131" xlink:href="#m8608184cfd" y="193.681261"/>
     <use style="fill:#1f78b4;stroke:#1f78b4;" x="151.567743" xlink:href="#m8608184cfd" y="161.391689"/>
     <use style="fill:#1f78b4;stroke:#1f78b4;" x="163.741016" xlink:href="#m8608184cfd" y="134.499029"/>
     <use style="fill:#1f78b4;stroke:#1f78b4;" x="201.29207" xlink:href="#m8608184cfd" y="55.668098"/>
     <use style="fill:#1f78b4;stroke:#1f78b4;" x="183.133545" xlink:href="#m8608184cfd" y="119.312278"/>
     <use style="fill:#1f78b4;stroke:#1f78b4;" x="210.445875" xlink:href="#m8608184cfd" y="113.995"/>
     <use style="fill:#1f78b4;stroke:#1f78b4;" x="178.593398" xlink:href="#m8608184cfd" y="293.387902"/>
     <use style="fill:#1f78b4;stroke:#1f78b4;" x="161.76476" xlink:href="#m8608184cfd" y="217.344029"/>
     <use style="fill:#1f78b4;stroke:#1f78b4;" x="67.081398" xlink:href="#m8608184cfd" y="207.016526"/>
     <use style="fill:#1f78b4;stroke:#1f78b4;" x="126.115504" xlink:href="#m8608184cfd" y="135.019557"/>
    </g>
   </g>
   <g id="text_11">
    <g clip-path="url(#pd0dd81b47b)">
     <!-- 0 -->
     <g transform="translate(88.854631 196.992511)scale(0.12 -0.12)">
      <use xlink:href="#DejaVuSans-48"/>
     </g>
    </g>
   </g>
   <g id="text_12">
    <g clip-path="url(#pd0dd81b47b)">
     <!-- 1 -->
     <g transform="translate(147.750243 164.702939)scale(0.12 -0.12)">
      <use xlink:href="#DejaVuSans-49"/>
     </g>
    </g>
   </g>
   <g id="text_13">
    <g clip-path="url(#pd0dd81b47b)">
     <!-- 2 -->
     <g transform="translate(159.923516 137.810279)scale(0.12 -0.12)">
      <use xlink:href="#DejaVuSans-50"/>
     </g>
    </g>
   </g>
   <g id="text_14">
    <g clip-path="url(#pd0dd81b47b)">
     <!-- 3 -->
     <g transform="translate(197.47457 58.979348)scale(0.12 -0.12)">
      <use xlink:href="#DejaVuSans-51"/>
     </g>
    </g>
   </g>
   <g id="text_15">
    <g clip-path="url(#pd0dd81b47b)">
     <!-- 4 -->
     <g transform="translate(179.316045 122.623528)scale(0.12 -0.12)">
      <use xlink:href="#DejaVuSans-52"/>
     </g>
    </g>
   </g>
   <g id="text_16">
    <g clip-path="url(#pd0dd81b47b)">
     <!-- 5 -->
     <g transform="translate(206.628375 117.30625)scale(0.12 -0.12)">
      <use xlink:href="#DejaVuSans-53"/>
     </g>
    </g>
   </g>
   <g id="text_17">
    <g clip-path="url(#pd0dd81b47b)">
     <!-- 6 -->
     <g transform="translate(174.775898 296.699152)scale(0.12 -0.12)">
      <use xlink:href="#DejaVuSans-54"/>
     </g>
    </g>
   </g>
   <g id="text_18">
    <g clip-path="url(#pd0dd81b47b)">
     <!-- 7 -->
     <g transform="translate(157.94726 220.655279)scale(0.12 -0.12)">
      <use xlink:href="#DejaVuSans-55"/>
     </g>
    </g>
   </g>
   <g id="text_19">
    <g clip-path="url(#pd0dd81b47b)">
     <!-- 8 -->
     <defs>
      <path d="M 31.78125 34.625 
Q 24.75 34.625 20.71875 30.859375 
Q 16.703125 27.09375 16.703125 20.515625 
Q 16.703125 13.921875 20.71875 10.15625 
Q 24.75 6.390625 31.78125 6.390625 
Q 38.8125 6.390625 42.859375 10.171875 
Q 46.921875 13.96875 46.921875 20.515625 
Q 46.921875 27.09375 42.890625 30.859375 
Q 38.875 34.625 31.78125 34.625 
z
M 21.921875 38.8125 
Q 15.578125 40.375 12.03125 44.71875 
Q 8.5 49.078125 8.5 55.328125 
Q 8.5 64.0625 14.71875 69.140625 
Q 20.953125 74.21875 31.78125 74.21875 
Q 42.671875 74.21875 48.875 69.140625 
Q 55.078125 64.0625 55.078125 55.328125 
Q 55.078125 49.078125 51.53125 44.71875 
Q 48 40.375 41.703125 38.8125 
Q 48.828125 37.15625 52.796875 32.3125 
Q 56.78125 27.484375 56.78125 20.515625 
Q 56.78125 9.90625 50.3125 4.234375 
Q 43.84375 -1.421875 31.78125 -1.421875 
Q 19.734375 -1.421875 13.25 4.234375 
Q 6.78125 9.90625 6.78125 20.515625 
Q 6.78125 27.484375 10.78125 32.3125 
Q 14.796875 37.15625 21.921875 38.8125 
z
M 18.3125 54.390625 
Q 18.3125 48.734375 21.84375 45.5625 
Q 25.390625 42.390625 31.78125 42.390625 
Q 38.140625 42.390625 41.71875 45.5625 
Q 45.3125 48.734375 45.3125 54.390625 
Q 45.3125 60.0625 41.71875 63.234375 
Q 38.140625 66.40625 31.78125 66.40625 
Q 25.390625 66.40625 21.84375 63.234375 
Q 18.3125 60.0625 18.3125 54.390625 
z
" id="DejaVuSans-56"/>
     </defs>
     <g transform="translate(63.263898 210.327776)scale(0.12 -0.12)">
      <use xlink:href="#DejaVuSans-56"/>
     </g>
    </g>
   </g>
   <g id="text_20">
    <g clip-path="url(#pd0dd81b47b)">
     <!-- 9 -->
     <g transform="translate(122.298004 138.330807)scale(0.12 -0.12)">
      <use xlink:href="#DejaVuSans-57"/>
     </g>
    </g>
   </g>
  </g>
  <g id="axes_2">
   <g id="LineCollection_2">
    <path clip-path="url(#p6ddc11b24b)" d="M 377.971958 129.186898 
L 316.454291 170.806501 
" style="fill:none;stroke:#ff0000;"/>
    <path clip-path="url(#p6ddc11b24b)" d="M 377.971958 129.186898 
L 405.128658 113.001681 
" style="fill:none;stroke:#ff0000;"/>
    <path clip-path="url(#p6ddc11b24b)" d="M 316.454291 170.806501 
L 344.363703 182.674314 
" style="fill:none;stroke:#ff0000;"/>
    <path clip-path="url(#p6ddc11b24b)" d="M 316.454291 170.806501 
L 291.267327 229.631299 
" style="fill:none;stroke:#ff0000;"/>
    <path clip-path="url(#p6ddc11b24b)" d="M 316.454291 170.806501 
L 297.303721 122.003884 
" style="fill:none;stroke:#ff0000;"/>
    <path clip-path="url(#p6ddc11b24b)" d="M 272.027104 271.701856 
L 291.267327 229.631299 
" style="fill:none;stroke:#ff0000;"/>
    <path clip-path="url(#p6ddc11b24b)" d="M 306.200877 293.519322 
L 291.267327 229.631299 
" style="fill:none;stroke:#ff0000;"/>
    <path clip-path="url(#p6ddc11b24b)" d="M 291.267327 229.631299 
L 261.984069 227.47411 
" style="fill:none;stroke:#ff0000;"/>
    <path clip-path="url(#p6ddc11b24b)" d="M 267.73602 55.536678 
L 297.303721 122.003884 
" style="fill:none;stroke:#ff0000;"/>
   </g>
   <g id="text_21">
    <g id="patch_12">
     <path clip-path="url(#p6ddc11b24b)" d="M 344.316232 157.635322 
L 355.381187 150.149358 
Q 356.872044 149.140723 355.863409 147.649865 
L 352.60951 142.840298 
Q 351.600875 141.349441 350.110018 142.358076 
L 339.045062 149.84404 
Q 337.554205 150.852676 338.56284 152.343533 
L 341.816739 157.1531 
Q 342.825375 158.643957 344.316232 157.635322 
z
" style="fill:#ffffff;stroke:#ffffff;stroke-linejoin:miter;"/>
    </g>
    <g clip-path="url(#p6ddc11b24b)">
     <!-- 0.16 -->
     <g style="opacity:0.5;" transform="translate(342.608381 155.110959)rotate(-34.080205)scale(0.06 -0.06)">
      <use xlink:href="#DejaVuSans-48"/>
      <use x="63.623047" xlink:href="#DejaVuSans-46"/>
      <use x="95.410156" xlink:href="#DejaVuSans-49"/>
      <use x="159.033203" xlink:href="#DejaVuSans-54"/>
     </g>
    </g>
   </g>
   <g id="text_22">
    <g id="patch_13">
     <path clip-path="url(#p6ddc11b24b)" d="M 388.220392 128.55433 
L 399.696196 121.714826 
Q 401.242409 120.793292 400.320876 119.247079 
L 397.347971 114.258929 
Q 396.426438 112.712716 394.880225 113.634249 
L 383.404421 120.473753 
Q 381.858207 121.395287 382.77974 122.9415 
L 385.752645 127.92965 
Q 386.674178 129.475863 388.220392 128.55433 
z
" style="fill:#ffffff;stroke:#ffffff;stroke-linejoin:miter;"/>
    </g>
    <g clip-path="url(#p6ddc11b24b)">
     <!-- 0.57 -->
     <g style="opacity:0.5;" transform="translate(386.660025 125.936236)rotate(-30.794667)scale(0.06 -0.06)">
      <use xlink:href="#DejaVuSans-48"/>
      <use x="63.623047" xlink:href="#DejaVuSans-46"/>
      <use x="95.410156" xlink:href="#DejaVuSans-53"/>
      <use x="159.033203" xlink:href="#DejaVuSans-55"/>
     </g>
    </g>
   </g>
   <g id="text_23">
    <g id="patch_14">
     <path clip-path="url(#p6ddc11b24b)" d="M 322.42144 178.454899 
L 334.715485 183.682649 
Q 336.371945 184.387019 337.076316 182.730559 
L 339.348645 177.386747 
Q 340.053015 175.730286 338.396554 175.025916 
L 326.10251 169.798166 
Q 324.446049 169.093795 323.741679 170.750256 
L 321.46935 176.094067 
Q 320.764979 177.750528 322.42144 178.454899 
z
" style="fill:#ffffff;stroke:#ffffff;stroke-linejoin:miter;"/>
    </g>
    <g clip-path="url(#p6ddc11b24b)">
     <!-- 0.41 -->
     <g style="opacity:0.5;" transform="translate(323.614101 175.650131)rotate(-336.963531)scale(0.06 -0.06)">
      <use xlink:href="#DejaVuSans-48"/>
      <use x="63.623047" xlink:href="#DejaVuSans-46"/>
      <use x="95.410156" xlink:href="#DejaVuSans-52"/>
      <use x="159.033203" xlink:href="#DejaVuSans-49"/>
     </g>
    </g>
   </g>
   <g id="text_24">
    <g id="patch_15">
     <path clip-path="url(#p6ddc11b24b)" d="M 305.555409 208.210701 
L 310.813751 195.929709 
Q 311.522243 194.275007 309.867541 193.566515 
L 304.529404 191.280889 
Q 302.874702 190.572397 302.166209 192.227099 
L 296.907868 204.50809 
Q 296.199376 206.162792 297.854078 206.871284 
L 303.192215 209.15691 
Q 304.846917 209.865403 305.555409 208.210701 
z
" style="fill:#ffffff;stroke:#ffffff;stroke-linejoin:miter;"/>
    </g>
    <g clip-path="url(#p6ddc11b24b)">
     <!-- 0.49 -->
     <g style="opacity:0.5;" transform="translate(302.75362 207.011061)rotate(-66.820885)scale(0.06 -0.06)">
      <use xlink:href="#DejaVuSans-48"/>
      <use x="63.623047" xlink:href="#DejaVuSans-46"/>
      <use x="95.410156" xlink:href="#DejaVuSans-52"/>
      <use x="159.033203" xlink:href="#DejaVuSans-57"/>
     </g>
    </g>
   </g>
   <g id="text_25">
    <g id="patch_16">
     <path clip-path="url(#p6ddc11b24b)" d="M 300.757828 143.68208 
L 304.243386 152.564549 
Q 304.900909 154.240157 306.576517 153.582634 
L 311.9821 151.461437 
Q 313.657708 150.803914 313.000185 149.128305 
L 309.514627 140.245836 
Q 308.857103 138.570228 307.181495 139.227751 
L 301.775913 141.348948 
Q 300.100305 142.006471 300.757828 143.68208 
z
" style="fill:#ffffff;stroke:#ffffff;stroke-linejoin:miter;"/>
    </g>
    <g clip-path="url(#p6ddc11b24b)">
     <!-- 0.5 -->
     <g style="opacity:0.5;" transform="translate(303.595017 142.568742)rotate(-291.425473)scale(0.06 -0.06)">
      <use xlink:href="#DejaVuSans-48"/>
      <use x="63.623047" xlink:href="#DejaVuSans-46"/>
      <use x="95.410156" xlink:href="#DejaVuSans-53"/>
     </g>
    </g>
   </g>
   <g id="text_26">
    <g id="patch_17">
     <path clip-path="url(#p6ddc11b24b)" d="M 283.146469 258.697318 
L 288.702663 246.548177 
Q 289.451287 244.911241 287.81435 244.162616 
L 282.533524 241.747524 
Q 280.896587 240.9989 280.147963 242.635837 
L 274.591769 254.784977 
Q 273.843145 256.421914 275.480082 257.170538 
L 280.760908 259.58563 
Q 282.397845 260.334254 283.146469 258.697318 
z
" style="fill:#ffffff;stroke:#ffffff;stroke-linejoin:miter;"/>
    </g>
    <g clip-path="url(#p6ddc11b24b)">
     <!-- 0.43 -->
     <g style="opacity:0.5;" transform="translate(280.37476 257.429726)rotate(-65.423852)scale(0.06 -0.06)">
      <use xlink:href="#DejaVuSans-48"/>
      <use x="63.623047" xlink:href="#DejaVuSans-46"/>
      <use x="95.410156" xlink:href="#DejaVuSans-52"/>
      <use x="159.033203" xlink:href="#DejaVuSans-51"/>
     </g>
    </g>
   </g>
   <g id="text_27">
    <g id="patch_18">
     <path clip-path="url(#p6ddc11b24b)" d="M 292.633753 256.141501 
L 295.674486 269.150223 
Q 296.084184 270.902977 297.836938 270.493278 
L 303.491396 269.171573 
Q 305.24415 268.761874 304.834452 267.00912 
L 301.793719 254.000398 
Q 301.38402 252.247644 299.631266 252.657343 
L 293.976808 253.979048 
Q 292.224054 254.388747 292.633753 256.141501 
z
" style="fill:#ffffff;stroke:#ffffff;stroke-linejoin:miter;"/>
    </g>
    <g clip-path="url(#p6ddc11b24b)">
     <!-- 0.23 -->
     <g style="opacity:0.5;" transform="translate(295.601567 255.447787)rotate(-283.156426)scale(0.06 -0.06)">
      <use xlink:href="#DejaVuSans-48"/>
      <use x="63.623047" xlink:href="#DejaVuSans-46"/>
      <use x="95.410156" xlink:href="#DejaVuSans-50"/>
      <use x="159.033203" xlink:href="#DejaVuSans-51"/>
     </g>
    </g>
   </g>
   <g id="text_28">
    <g id="patch_19">
     <path clip-path="url(#p6ddc11b24b)" d="M 269.618513 232.752694 
L 282.941786 233.73417 
Q 284.736922 233.866411 284.869163 232.071275 
L 285.295778 226.280092 
Q 285.428019 224.484956 283.632883 224.352715 
L 270.30961 223.371239 
Q 268.514475 223.238998 268.382234 225.034134 
L 267.955619 230.825317 
Q 267.823378 232.620453 269.618513 232.752694 
z
" style="fill:#ffffff;stroke:#ffffff;stroke-linejoin:miter;"/>
    </g>
    <g clip-path="url(#p6ddc11b24b)">
     <!-- 0.56 -->
     <g style="opacity:0.5;" transform="translate(269.842428 229.713117)rotate(-355.786843)scale(0.06 -0.06)">
      <use xlink:href="#DejaVuSans-48"/>
      <use x="63.623047" xlink:href="#DejaVuSans-46"/>
      <use x="95.410156" xlink:href="#DejaVuSans-53"/>
      <use x="159.033203" xlink:href="#DejaVuSans-54"/>
     </g>
    </g>
   </g>
   <g id="text_29">
    <g id="patch_20">
     <path clip-path="url(#p6ddc11b24b)" d="M 275.50753 84.578906 
L 280.937383 96.785035 
Q 281.668984 98.429651 283.3136 97.698049 
L 288.619197 95.337873 
Q 290.263813 94.606272 289.532211 92.961656 
L 284.102358 80.755527 
Q 283.370757 79.110912 281.726141 79.842513 
L 276.420544 82.202689 
Q 274.775928 82.934291 275.50753 84.578906 
z
" style="fill:#ffffff;stroke:#ffffff;stroke-linejoin:miter;"/>
    </g>
    <g clip-path="url(#p6ddc11b24b)">
     <!-- 0.13 -->
     <g style="opacity:0.5;" transform="translate(278.29224 83.340137)rotate(-293.98172)scale(0.06 -0.06)">
      <use xlink:href="#DejaVuSans-48"/>
      <use x="63.623047" xlink:href="#DejaVuSans-46"/>
      <use x="95.410156" xlink:href="#DejaVuSans-49"/>
      <use x="159.033203" xlink:href="#DejaVuSans-51"/>
     </g>
    </g>
   </g>
   <g id="PathCollection_2">
    <defs>
     <path d="M 0 5.477226 
C 1.452577 5.477226 2.845856 4.900111 3.872983 3.872983 
C 4.900111 2.845856 5.477226 1.452577 5.477226 0 
C 5.477226 -1.452577 4.900111 -2.845856 3.872983 -3.872983 
C 2.845856 -4.900111 1.452577 -5.477226 0 -5.477226 
C -1.452577 -5.477226 -2.845856 -4.900111 -3.872983 -3.872983 
C -4.900111 -2.845856 -5.477226 -1.452577 -5.477226 0 
C -5.477226 1.452577 -4.900111 2.845856 -3.872983 3.872983 
C -2.845856 4.900111 -1.452577 5.477226 0 5.477226 
z
" id="m4d2c49370a" style="stroke:#ffaa00;"/>
    </defs>
    <g clip-path="url(#p6ddc11b24b)">
     <use style="fill:#ffaa00;stroke:#ffaa00;" x="377.971958" xlink:href="#m4d2c49370a" y="129.186898"/>
     <use style="fill:#ffaa00;stroke:#ffaa00;" x="316.454291" xlink:href="#m4d2c49370a" y="170.806501"/>
     <use style="fill:#ffaa00;stroke:#ffaa00;" x="272.027104" xlink:href="#m4d2c49370a" y="271.701856"/>
     <use style="fill:#ffaa00;stroke:#ffaa00;" x="306.200877" xlink:href="#m4d2c49370a" y="293.519322"/>
     <use style="fill:#ffaa00;stroke:#ffaa00;" x="291.267327" xlink:href="#m4d2c49370a" y="229.631299"/>
     <use style="fill:#ffaa00;stroke:#ffaa00;" x="261.984069" xlink:href="#m4d2c49370a" y="227.47411"/>
     <use style="fill:#ffaa00;stroke:#ffaa00;" x="267.73602" xlink:href="#m4d2c49370a" y="55.536678"/>
     <use style="fill:#ffaa00;stroke:#ffaa00;" x="297.303721" xlink:href="#m4d2c49370a" y="122.003884"/>
     <use style="fill:#ffaa00;stroke:#ffaa00;" x="405.128658" xlink:href="#m4d2c49370a" y="113.001681"/>
     <use style="fill:#ffaa00;stroke:#ffaa00;" x="344.363703" xlink:href="#m4d2c49370a" y="182.674314"/>
    </g>
   </g>
   <g id="text_30">
    <g clip-path="url(#p6ddc11b24b)">
     <!-- 0 -->
     <g transform="translate(374.154458 132.498148)scale(0.12 -0.12)">
      <use xlink:href="#DejaVuSans-48"/>
     </g>
    </g>
   </g>
   <g id="text_31">
    <g clip-path="url(#p6ddc11b24b)">
     <!-- 1 -->
     <g transform="translate(312.636791 174.117751)scale(0.12 -0.12)">
      <use xlink:href="#DejaVuSans-49"/>
     </g>
    </g>
   </g>
   <g id="text_32">
    <g clip-path="url(#p6ddc11b24b)">
     <!-- 2 -->
     <g transform="translate(268.209604 275.013106)scale(0.12 -0.12)">
      <use xlink:href="#DejaVuSans-50"/>
     </g>
    </g>
   </g>
   <g id="text_33">
    <g clip-path="url(#p6ddc11b24b)">
     <!-- 3 -->
     <g transform="translate(302.383377 296.830572)scale(0.12 -0.12)">
      <use xlink:href="#DejaVuSans-51"/>
     </g>
    </g>
   </g>
   <g id="text_34">
    <g clip-path="url(#p6ddc11b24b)">
     <!-- 4 -->
     <g transform="translate(287.449827 232.942549)scale(0.12 -0.12)">
      <use xlink:href="#DejaVuSans-52"/>
     </g>
    </g>
   </g>
   <g id="text_35">
    <g clip-path="url(#p6ddc11b24b)">
     <!-- 5 -->
     <g transform="translate(258.166569 230.78536)scale(0.12 -0.12)">
      <use xlink:href="#DejaVuSans-53"/>
     </g>
    </g>
   </g>
   <g id="text_36">
    <g clip-path="url(#p6ddc11b24b)">
     <!-- 6 -->
     <g transform="translate(263.91852 58.847928)scale(0.12 -0.12)">
      <use xlink:href="#DejaVuSans-54"/>
     </g>
    </g>
   </g>
   <g id="text_37">
    <g clip-path="url(#p6ddc11b24b)">
     <!-- 7 -->
     <g transform="translate(293.486221 125.315134)scale(0.12 -0.12)">
      <use xlink:href="#DejaVuSans-55"/>
     </g>
    </g>
   </g>
   <g id="text_38">
    <g clip-path="url(#p6ddc11b24b)">
     <!-- 8 -->
     <g transform="translate(401.311158 116.312931)scale(0.12 -0.12)">
      <use xlink:href="#DejaVuSans-56"/>
     </g>
    </g>
   </g>
   <g id="text_39">
    <g clip-path="url(#p6ddc11b24b)">
     <!-- 9 -->
     <g transform="translate(340.546203 185.985564)scale(0.12 -0.12)">
      <use xlink:href="#DejaVuSans-57"/>
     </g>
    </g>
   </g>
  </g>
 </g>
 <defs>
  <clipPath id="pd0dd81b47b">
   <rect height="266.112" width="162.327273" x="57.6" y="41.472"/>
  </clipPath>
  <clipPath id="p6ddc11b24b">
   <rect height="266.112" width="162.327273" x="252.392727" y="41.472"/>
  </clipPath>
 </defs>
</svg>
