<?xml version="1.0" encoding="utf-8" standalone="no"?>
<!DOCTYPE svg PUBLIC "-//W3C//DTD SVG 1.1//EN"
  "http://www.w3.org/Graphics/SVG/1.1/DTD/svg11.dtd">
<!-- Created with matplotlib (https://matplotlib.org/) -->
<svg height="1065.6pt" version="1.1" viewBox="0 0 1180.8 1065.6" width="1180.8pt" xmlns="http://www.w3.org/2000/svg" xmlns:xlink="http://www.w3.org/1999/xlink">
 <defs>
  <style type="text/css">
*{stroke-linecap:butt;stroke-linejoin:round;}
  </style>
 </defs>
 <g id="figure_1">
  <g id="patch_1">
   <path d="M 0 1065.6 
L 1180.8 1065.6 
L 1180.8 0 
L 0 0 
z
" style="fill:#ffffff;"/>
  </g>
  <g id="axes_1">
   <g id="LineCollection_1">
    <path clip-path="url(#p1ea7fa8fc4)" d="M 468.579855 757.313486 
L 541.987416 710.119396 
" style="fill:none;stroke:#000000;"/>
    <path clip-path="url(#p1ea7fa8fc4)" d="M 468.579855 757.313486 
L 435.525576 622.120468 
" style="fill:none;stroke:#000000;"/>
    <path clip-path="url(#p1ea7fa8fc4)" d="M 541.987416 710.119396 
L 511.102529 554.050381 
" style="fill:none;stroke:#000000;"/>
    <path clip-path="url(#p1ea7fa8fc4)" d="M 511.102529 554.050381 
L 428.265496 457.31787 
" style="fill:none;stroke:#000000;"/>
    <path clip-path="url(#p1ea7fa8fc4)" d="M 169.176221 908.393208 
L 265.627053 537.591294 
" style="fill:none;stroke:#000000;"/>
    <path clip-path="url(#p1ea7fa8fc4)" d="M 265.627053 537.591294 
L 339.281637 473.560111 
" style="fill:none;stroke:#000000;"/>
    <path clip-path="url(#p1ea7fa8fc4)" d="M 339.281637 473.560111 
L 428.265496 457.31787 
" style="fill:none;stroke:#000000;"/>
    <path clip-path="url(#p1ea7fa8fc4)" d="M 428.265496 457.31787 
L 435.525576 622.120468 
" style="fill:none;stroke:#000000;"/>
    <path clip-path="url(#p1ea7fa8fc4)" d="M 428.265496 457.31787 
L 465.374815 293.712101 
" style="fill:none;stroke:#000000;"/>
    <path clip-path="url(#p1ea7fa8fc4)" d="M 465.374815 293.712101 
L 504.686565 167.862792 
" style="fill:none;stroke:#000000;"/>
   </g>
   <g id="text_1">
    <g id="patch_2">
     <path clip-path="url(#p1ea7fa8fc4)" d="M 497.08328 753.899444 
L 527.04961 734.63394 
Q 531.087179 732.038167 528.491406 728.000598 
L 520.117333 714.975233 
Q 517.52156 710.937664 513.483991 713.533437 
L 483.517661 732.798942 
Q 479.480092 735.394715 482.075865 739.432284 
L 490.449938 752.457649 
Q 493.045711 756.495218 497.08328 753.899444 
z
" style="fill:#ffffff;stroke:#ffffff;stroke-linejoin:miter;"/>
    </g>
    <g clip-path="url(#p1ea7fa8fc4)">
     <!-- 0.28 -->
     <defs>
      <path d="M 31.78125 66.40625 
Q 24.171875 66.40625 20.328125 58.90625 
Q 16.5 51.421875 16.5 36.375 
Q 16.5 21.390625 20.328125 13.890625 
Q 24.171875 6.390625 31.78125 6.390625 
Q 39.453125 6.390625 43.28125 13.890625 
Q 47.125 21.390625 47.125 36.375 
Q 47.125 51.421875 43.28125 58.90625 
Q 39.453125 66.40625 31.78125 66.40625 
z
M 31.78125 74.21875 
Q 44.046875 74.21875 50.515625 64.515625 
Q 56.984375 54.828125 56.984375 36.375 
Q 56.984375 17.96875 50.515625 8.265625 
Q 44.046875 -1.421875 31.78125 -1.421875 
Q 19.53125 -1.421875 13.0625 8.265625 
Q 6.59375 17.96875 6.59375 36.375 
Q 6.59375 54.828125 13.0625 64.515625 
Q 19.53125 74.21875 31.78125 74.21875 
z
" id="DejaVuSans-48"/>
      <path d="M 10.6875 12.40625 
L 21 12.40625 
L 21 0 
L 10.6875 0 
z
" id="DejaVuSans-46"/>
      <path d="M 19.1875 8.296875 
L 53.609375 8.296875 
L 53.609375 0 
L 7.328125 0 
L 7.328125 8.296875 
Q 12.9375 14.109375 22.625 23.890625 
Q 32.328125 33.6875 34.8125 36.53125 
Q 39.546875 41.84375 41.421875 45.53125 
Q 43.3125 49.21875 43.3125 52.78125 
Q 43.3125 58.59375 39.234375 62.25 
Q 35.15625 65.921875 28.609375 65.921875 
Q 23.96875 65.921875 18.8125 64.3125 
Q 13.671875 62.703125 7.8125 59.421875 
L 7.8125 69.390625 
Q 13.765625 71.78125 18.9375 73 
Q 24.125 74.21875 28.421875 74.21875 
Q 39.75 74.21875 46.484375 68.546875 
Q 53.21875 62.890625 53.21875 53.421875 
Q 53.21875 48.921875 51.53125 44.890625 
Q 49.859375 40.875 45.40625 35.40625 
Q 44.1875 33.984375 37.640625 27.21875 
Q 31.109375 20.453125 19.1875 8.296875 
z
" id="DejaVuSans-50"/>
      <path d="M 31.78125 34.625 
Q 24.75 34.625 20.71875 30.859375 
Q 16.703125 27.09375 16.703125 20.515625 
Q 16.703125 13.921875 20.71875 10.15625 
Q 24.75 6.390625 31.78125 6.390625 
Q 38.8125 6.390625 42.859375 10.171875 
Q 46.921875 13.96875 46.921875 20.515625 
Q 46.921875 27.09375 42.890625 30.859375 
Q 38.875 34.625 31.78125 34.625 
z
M 21.921875 38.8125 
Q 15.578125 40.375 12.03125 44.71875 
Q 8.5 49.078125 8.5 55.328125 
Q 8.5 64.0625 14.71875 69.140625 
Q 20.953125 74.21875 31.78125 74.21875 
Q 42.671875 74.21875 48.875 69.140625 
Q 55.078125 64.0625 55.078125 55.328125 
Q 55.078125 49.078125 51.53125 44.71875 
Q 48 40.375 41.703125 38.8125 
Q 48.828125 37.15625 52.796875 32.3125 
Q 56.78125 27.484375 56.78125 20.515625 
Q 56.78125 9.90625 50.3125 4.234375 
Q 43.84375 -1.421875 31.78125 -1.421875 
Q 19.734375 -1.421875 13.25 4.234375 
Q 6.78125 9.90625 6.78125 20.515625 
Q 6.78125 27.484375 10.78125 32.3125 
Q 14.796875 37.15625 21.921875 38.8125 
z
M 18.3125 54.390625 
Q 18.3125 48.734375 21.84375 45.5625 
Q 25.390625 42.390625 31.78125 42.390625 
Q 38.140625 42.390625 41.71875 45.5625 
Q 45.3125 48.734375 45.3125 54.390625 
Q 45.3125 60.0625 41.71875 63.234375 
Q 38.140625 66.40625 31.78125 66.40625 
Q 25.390625 66.40625 21.84375 63.234375 
Q 18.3125 60.0625 18.3125 54.390625 
z
" id="DejaVuSans-56"/>
     </defs>
     <g style="opacity:0.5;" transform="translate(492.688041 747.062915)rotate(-32.737168)scale(0.16 -0.16)">
      <use xlink:href="#DejaVuSans-48"/>
      <use x="63.623047" xlink:href="#DejaVuSans-46"/>
      <use x="95.410156" xlink:href="#DejaVuSans-50"/>
      <use x="159.033203" xlink:href="#DejaVuSans-56"/>
     </g>
    </g>
   </g>
   <g id="text_2">
    <g id="patch_3">
     <path clip-path="url(#p1ea7fa8fc4)" d="M 435.638601 675.393 
L 444.099582 709.998671 
Q 445.239587 714.66133 449.902246 713.521324 
L 464.944178 709.843618 
Q 469.606836 708.703612 468.466831 704.040953 
L 460.00585 669.435282 
Q 458.865844 664.772624 454.203185 665.91263 
L 439.161254 669.590336 
Q 434.498595 670.730342 435.638601 675.393 
z
" style="fill:#ffffff;stroke:#ffffff;stroke-linejoin:miter;"/>
    </g>
    <g clip-path="url(#p1ea7fa8fc4)">
     <!-- 0.48 -->
     <defs>
      <path d="M 37.796875 64.3125 
L 12.890625 25.390625 
L 37.796875 25.390625 
z
M 35.203125 72.90625 
L 47.609375 72.90625 
L 47.609375 25.390625 
L 58.015625 25.390625 
L 58.015625 17.1875 
L 47.609375 17.1875 
L 47.609375 0 
L 37.796875 0 
L 37.796875 17.1875 
L 4.890625 17.1875 
L 4.890625 26.703125 
z
" id="DejaVuSans-52"/>
     </defs>
     <g style="opacity:0.5;" transform="translate(443.533551 673.462709)rotate(-283.739107)scale(0.16 -0.16)">
      <use xlink:href="#DejaVuSans-48"/>
      <use x="63.623047" xlink:href="#DejaVuSans-46"/>
      <use x="95.410156" xlink:href="#DejaVuSans-52"/>
      <use x="159.033203" xlink:href="#DejaVuSans-56"/>
     </g>
    </g>
   </g>
   <g id="text_3">
    <g id="patch_4">
     <path clip-path="url(#p1ea7fa8fc4)" d="M 510.783176 617.046098 
L 517.69898 651.993376 
Q 518.630794 656.702062 523.33948 655.770249 
L 538.529897 652.764179 
Q 543.238583 651.832365 542.306769 647.123679 
L 535.390965 612.176401 
Q 534.459151 607.467715 529.750465 608.399529 
L 514.560048 611.405598 
Q 509.851362 612.337412 510.783176 617.046098 
z
" style="fill:#ffffff;stroke:#ffffff;stroke-linejoin:miter;"/>
    </g>
    <g clip-path="url(#p1ea7fa8fc4)">
     <!-- 0.37 -->
     <defs>
      <path d="M 40.578125 39.3125 
Q 47.65625 37.796875 51.625 33 
Q 55.609375 28.21875 55.609375 21.1875 
Q 55.609375 10.40625 48.1875 4.484375 
Q 40.765625 -1.421875 27.09375 -1.421875 
Q 22.515625 -1.421875 17.65625 -0.515625 
Q 12.796875 0.390625 7.625 2.203125 
L 7.625 11.71875 
Q 11.71875 9.328125 16.59375 8.109375 
Q 21.484375 6.890625 26.8125 6.890625 
Q 36.078125 6.890625 40.9375 10.546875 
Q 45.796875 14.203125 45.796875 21.1875 
Q 45.796875 27.640625 41.28125 31.265625 
Q 36.765625 34.90625 28.71875 34.90625 
L 20.21875 34.90625 
L 20.21875 43.015625 
L 29.109375 43.015625 
Q 36.375 43.015625 40.234375 45.921875 
Q 44.09375 48.828125 44.09375 54.296875 
Q 44.09375 59.90625 40.109375 62.90625 
Q 36.140625 65.921875 28.71875 65.921875 
Q 24.65625 65.921875 20.015625 65.03125 
Q 15.375 64.15625 9.8125 62.3125 
L 9.8125 71.09375 
Q 15.4375 72.65625 20.34375 73.4375 
Q 25.25 74.21875 29.59375 74.21875 
Q 40.828125 74.21875 47.359375 69.109375 
Q 53.90625 64.015625 53.90625 55.328125 
Q 53.90625 49.265625 50.4375 45.09375 
Q 46.96875 40.921875 40.578125 39.3125 
z
" id="DejaVuSans-51"/>
      <path d="M 8.203125 72.90625 
L 55.078125 72.90625 
L 55.078125 68.703125 
L 28.609375 0 
L 18.3125 0 
L 43.21875 64.59375 
L 8.203125 64.59375 
z
" id="DejaVuSans-55"/>
     </defs>
     <g style="opacity:0.5;" transform="translate(518.75606 615.468324)rotate(-281.193779)scale(0.16 -0.16)">
      <use xlink:href="#DejaVuSans-48"/>
      <use x="63.623047" xlink:href="#DejaVuSans-46"/>
      <use x="95.410156" xlink:href="#DejaVuSans-51"/>
      <use x="159.033203" xlink:href="#DejaVuSans-55"/>
     </g>
    </g>
   </g>
   <g id="text_4">
    <g id="patch_5">
     <path clip-path="url(#p1ea7fa8fc4)" d="M 448.571264 500.312783 
L 471.743361 527.371877 
Q 474.865496 531.017734 478.511353 527.895599 
L 490.273039 517.823461 
Q 493.918896 514.701325 490.796761 511.055469 
L 467.624664 483.996375 
Q 464.502529 480.350518 460.856672 483.472653 
L 449.094986 493.544791 
Q 445.449129 496.666926 448.571264 500.312783 
z
" style="fill:#ffffff;stroke:#ffffff;stroke-linejoin:miter;"/>
    </g>
    <g clip-path="url(#p1ea7fa8fc4)">
     <!-- 0.41 -->
     <defs>
      <path d="M 12.40625 8.296875 
L 28.515625 8.296875 
L 28.515625 63.921875 
L 10.984375 60.40625 
L 10.984375 69.390625 
L 28.421875 72.90625 
L 38.28125 72.90625 
L 38.28125 8.296875 
L 54.390625 8.296875 
L 54.390625 0 
L 12.40625 0 
z
" id="DejaVuSans-49"/>
     </defs>
     <g style="opacity:0.5;" transform="translate(454.744536 495.026293)rotate(-310.575147)scale(0.16 -0.16)">
      <use xlink:href="#DejaVuSans-48"/>
      <use x="63.623047" xlink:href="#DejaVuSans-46"/>
      <use x="95.410156" xlink:href="#DejaVuSans-52"/>
      <use x="159.033203" xlink:href="#DejaVuSans-49"/>
     </g>
    </g>
   </g>
   <g id="text_5">
    <g id="patch_6">
     <path clip-path="url(#p1ea7fa8fc4)" d="M 225.056141 743.388526 
L 234.024284 708.910808 
Q 235.232624 704.265389 230.587205 703.05705 
L 215.60089 699.158897 
Q 210.955471 697.950558 209.747132 702.595977 
L 200.778989 737.073694 
Q 199.57065 741.719113 204.216069 742.927453 
L 219.202383 746.825605 
Q 223.847802 748.033945 225.056141 743.388526 
z
" style="fill:#ffffff;stroke:#ffffff;stroke-linejoin:miter;"/>
    </g>
    <g clip-path="url(#p1ea7fa8fc4)">
     <!-- 0.04 -->
     <g style="opacity:0.5;" transform="translate(217.190383 741.342531)rotate(-75.419657)scale(0.16 -0.16)">
      <use xlink:href="#DejaVuSans-48"/>
      <use x="63.623047" xlink:href="#DejaVuSans-46"/>
      <use x="95.410156" xlink:href="#DejaVuSans-48"/>
      <use x="159.033203" xlink:href="#DejaVuSans-52"/>
     </g>
    </g>
   </g>
   <g id="text_6">
    <g id="patch_7">
     <path clip-path="url(#p1ea7fa8fc4)" d="M 301.081755 523.388403 
L 320.284794 506.694353 
Q 323.907297 503.545151 320.758096 499.922648 
L 310.598639 488.236303 
Q 307.449437 484.6138 303.826934 487.763002 
L 284.623895 504.457052 
Q 281.001392 507.606254 284.150594 511.228757 
L 294.31005 522.915102 
Q 297.459252 526.537605 301.081755 523.388403 
z
" style="fill:#ffffff;stroke:#ffffff;stroke-linejoin:miter;"/>
    </g>
    <g clip-path="url(#p1ea7fa8fc4)">
     <!-- 0.6 -->
     <defs>
      <path d="M 33.015625 40.375 
Q 26.375 40.375 22.484375 35.828125 
Q 18.609375 31.296875 18.609375 23.390625 
Q 18.609375 15.53125 22.484375 10.953125 
Q 26.375 6.390625 33.015625 6.390625 
Q 39.65625 6.390625 43.53125 10.953125 
Q 47.40625 15.53125 47.40625 23.390625 
Q 47.40625 31.296875 43.53125 35.828125 
Q 39.65625 40.375 33.015625 40.375 
z
M 52.59375 71.296875 
L 52.59375 62.3125 
Q 48.875 64.0625 45.09375 64.984375 
Q 41.3125 65.921875 37.59375 65.921875 
Q 27.828125 65.921875 22.671875 59.328125 
Q 17.53125 52.734375 16.796875 39.40625 
Q 19.671875 43.65625 24.015625 45.921875 
Q 28.375 48.1875 33.59375 48.1875 
Q 44.578125 48.1875 50.953125 41.515625 
Q 57.328125 34.859375 57.328125 23.390625 
Q 57.328125 12.15625 50.6875 5.359375 
Q 44.046875 -1.421875 33.015625 -1.421875 
Q 20.359375 -1.421875 13.671875 8.265625 
Q 6.984375 17.96875 6.984375 36.375 
Q 6.984375 53.65625 15.1875 63.9375 
Q 23.390625 74.21875 37.203125 74.21875 
Q 40.921875 74.21875 44.703125 73.484375 
Q 48.484375 72.75 52.59375 71.296875 
z
" id="DejaVuSans-54"/>
     </defs>
     <g style="opacity:0.5;" transform="translate(295.749435 517.254676)rotate(-41.001874)scale(0.16 -0.16)">
      <use xlink:href="#DejaVuSans-48"/>
      <use x="63.623047" xlink:href="#DejaVuSans-46"/>
      <use x="95.410156" xlink:href="#DejaVuSans-54"/>
     </g>
    </g>
   </g>
   <g id="text_7">
    <g id="patch_8">
     <path clip-path="url(#p1ea7fa8fc4)" d="M 368.502758 480.976103 
L 403.548723 474.579157 
Q 408.270706 473.717252 407.408802 468.995269 
L 404.628262 453.761956 
Q 403.766358 449.039974 399.044375 449.901878 
L 363.99841 456.298825 
Q 359.276427 457.160729 360.138331 461.882712 
L 362.918871 477.116025 
Q 363.780775 481.838008 368.502758 480.976103 
z
" style="fill:#ffffff;stroke:#ffffff;stroke-linejoin:miter;"/>
    </g>
    <g clip-path="url(#p1ea7fa8fc4)">
     <!-- 0.68 -->
     <g style="opacity:0.5;" transform="translate(367.043356 472.980704)rotate(-10.344331)scale(0.16 -0.16)">
      <use xlink:href="#DejaVuSans-48"/>
      <use x="63.623047" xlink:href="#DejaVuSans-46"/>
      <use x="95.410156" xlink:href="#DejaVuSans-54"/>
      <use x="159.033203" xlink:href="#DejaVuSans-56"/>
     </g>
    </g>
   </g>
   <g id="text_8">
    <g id="patch_9">
     <path clip-path="url(#p1ea7fa8fc4)" d="M 418.581252 522.47593 
L 420.149126 558.066412 
Q 420.360376 562.861761 425.155726 562.65051 
L 440.625722 561.969008 
Q 445.421071 561.757757 445.20982 556.962408 
L 443.641946 521.371926 
Q 443.430696 516.576577 438.635346 516.787828 
L 423.16535 517.46933 
Q 418.370001 517.680581 418.581252 522.47593 
z
" style="fill:#ffffff;stroke:#ffffff;stroke-linejoin:miter;"/>
    </g>
    <g clip-path="url(#p1ea7fa8fc4)">
     <!-- 0.52 -->
     <defs>
      <path d="M 10.796875 72.90625 
L 49.515625 72.90625 
L 49.515625 64.59375 
L 19.828125 64.59375 
L 19.828125 46.734375 
Q 21.96875 47.46875 24.109375 47.828125 
Q 26.265625 48.1875 28.421875 48.1875 
Q 40.625 48.1875 47.75 41.5 
Q 54.890625 34.8125 54.890625 23.390625 
Q 54.890625 11.625 47.5625 5.09375 
Q 40.234375 -1.421875 26.90625 -1.421875 
Q 22.3125 -1.421875 17.546875 -0.640625 
Q 12.796875 0.140625 7.71875 1.703125 
L 7.71875 11.625 
Q 12.109375 9.234375 16.796875 8.0625 
Q 21.484375 6.890625 26.703125 6.890625 
Q 35.15625 6.890625 40.078125 11.328125 
Q 45.015625 15.765625 45.015625 23.390625 
Q 45.015625 31 40.078125 35.4375 
Q 35.15625 39.890625 26.703125 39.890625 
Q 22.75 39.890625 18.8125 39.015625 
Q 14.890625 38.140625 10.796875 36.28125 
z
" id="DejaVuSans-53"/>
     </defs>
     <g style="opacity:0.5;" transform="translate(426.700877 522.118235)rotate(-272.522431)scale(0.16 -0.16)">
      <use xlink:href="#DejaVuSans-48"/>
      <use x="63.623047" xlink:href="#DejaVuSans-46"/>
      <use x="95.410156" xlink:href="#DejaVuSans-53"/>
      <use x="159.033203" xlink:href="#DejaVuSans-50"/>
     </g>
    </g>
   </g>
   <g id="text_9">
    <g id="patch_10">
     <path clip-path="url(#p1ea7fa8fc4)" d="M 455.111777 395.660667 
L 462.992124 360.918175 
Q 464.053897 356.237081 459.372803 355.175308 
L 444.2714 351.749984 
Q 439.590307 350.688211 438.528533 355.369305 
L 430.648187 390.111797 
Q 429.586414 394.79289 434.267507 395.854664 
L 449.36891 399.279988 
Q 454.050004 400.341761 455.111777 395.660667 
z
" style="fill:#ffffff;stroke:#ffffff;stroke-linejoin:miter;"/>
    </g>
    <g clip-path="url(#p1ea7fa8fc4)">
     <!-- 0.64 -->
     <g style="opacity:0.5;" transform="translate(447.185613 393.862842)rotate(-77.220316)scale(0.16 -0.16)">
      <use xlink:href="#DejaVuSans-48"/>
      <use x="63.623047" xlink:href="#DejaVuSans-46"/>
      <use x="95.410156" xlink:href="#DejaVuSans-54"/>
      <use x="159.033203" xlink:href="#DejaVuSans-52"/>
     </g>
    </g>
   </g>
   <g id="text_10">
    <g id="patch_11">
     <path clip-path="url(#p1ea7fa8fc4)" d="M 491.691658 251.529456 
L 502.313727 217.524864 
Q 503.744911 212.943193 499.16324 211.512009 
L 484.382577 206.89495 
Q 479.800906 205.463766 478.369722 210.045437 
L 467.747653 244.050029 
Q 466.316469 248.6317 470.89814 250.062884 
L 485.678803 254.679944 
Q 490.260474 256.111128 491.691658 251.529456 
z
" style="fill:#ffffff;stroke:#ffffff;stroke-linejoin:miter;"/>
    </g>
    <g clip-path="url(#p1ea7fa8fc4)">
     <!-- 0.58 -->
     <g style="opacity:0.5;" transform="translate(483.933839 249.106134)rotate(-72.652678)scale(0.16 -0.16)">
      <use xlink:href="#DejaVuSans-48"/>
      <use x="63.623047" xlink:href="#DejaVuSans-46"/>
      <use x="95.410156" xlink:href="#DejaVuSans-53"/>
      <use x="159.033203" xlink:href="#DejaVuSans-56"/>
     </g>
    </g>
   </g>
   <g id="PathCollection_1">
    <defs>
     <path d="M 0 6.324555 
C 1.677292 6.324555 3.286112 5.65816 4.472136 4.472136 
C 5.65816 3.286112 6.324555 1.677292 6.324555 0 
C 6.324555 -1.677292 5.65816 -3.286112 4.472136 -4.472136 
C 3.286112 -5.65816 1.677292 -6.324555 0 -6.324555 
C -1.677292 -6.324555 -3.286112 -5.65816 -4.472136 -4.472136 
C -5.65816 -3.286112 -6.324555 -1.677292 -6.324555 0 
C -6.324555 1.677292 -5.65816 3.286112 -4.472136 4.472136 
C -3.286112 5.65816 -1.677292 6.324555 0 6.324555 
z
" id="m87081a7a9e" style="stroke:#1f78b4;"/>
    </defs>
    <g clip-path="url(#p1ea7fa8fc4)">
     <use style="fill:#1f78b4;stroke:#1f78b4;" x="468.579855" xlink:href="#m87081a7a9e" y="757.313486"/>
     <use style="fill:#1f78b4;stroke:#1f78b4;" x="541.987416" xlink:href="#m87081a7a9e" y="710.119396"/>
     <use style="fill:#1f78b4;stroke:#1f78b4;" x="511.102529" xlink:href="#m87081a7a9e" y="554.050381"/>
     <use style="fill:#1f78b4;stroke:#1f78b4;" x="169.176221" xlink:href="#m87081a7a9e" y="908.393208"/>
     <use style="fill:#1f78b4;stroke:#1f78b4;" x="265.627053" xlink:href="#m87081a7a9e" y="537.591294"/>
     <use style="fill:#1f78b4;stroke:#1f78b4;" x="339.281637" xlink:href="#m87081a7a9e" y="473.560111"/>
     <use style="fill:#1f78b4;stroke:#1f78b4;" x="428.265496" xlink:href="#m87081a7a9e" y="457.31787"/>
     <use style="fill:#1f78b4;stroke:#1f78b4;" x="465.374815" xlink:href="#m87081a7a9e" y="293.712101"/>
     <use style="fill:#1f78b4;stroke:#1f78b4;" x="504.686565" xlink:href="#m87081a7a9e" y="167.862792"/>
     <use style="fill:#1f78b4;stroke:#1f78b4;" x="435.525576" xlink:href="#m87081a7a9e" y="622.120468"/>
    </g>
   </g>
   <g id="text_11">
    <g clip-path="url(#p1ea7fa8fc4)">
     <!-- 0 -->
     <g transform="translate(464.762355 760.624736)scale(0.12 -0.12)">
      <use xlink:href="#DejaVuSans-48"/>
     </g>
    </g>
   </g>
   <g id="text_12">
    <g clip-path="url(#p1ea7fa8fc4)">
     <!-- 1 -->
     <g transform="translate(538.169916 713.430646)scale(0.12 -0.12)">
      <use xlink:href="#DejaVuSans-49"/>
     </g>
    </g>
   </g>
   <g id="text_13">
    <g clip-path="url(#p1ea7fa8fc4)">
     <!-- 2 -->
     <g transform="translate(507.285029 557.361631)scale(0.12 -0.12)">
      <use xlink:href="#DejaVuSans-50"/>
     </g>
    </g>
   </g>
   <g id="text_14">
    <g clip-path="url(#p1ea7fa8fc4)">
     <!-- 3 -->
     <g transform="translate(165.358721 911.704458)scale(0.12 -0.12)">
      <use xlink:href="#DejaVuSans-51"/>
     </g>
    </g>
   </g>
   <g id="text_15">
    <g clip-path="url(#p1ea7fa8fc4)">
     <!-- 4 -->
     <g transform="translate(261.809553 540.902544)scale(0.12 -0.12)">
      <use xlink:href="#DejaVuSans-52"/>
     </g>
    </g>
   </g>
   <g id="text_16">
    <g clip-path="url(#p1ea7fa8fc4)">
     <!-- 5 -->
     <g transform="translate(335.464137 476.871361)scale(0.12 -0.12)">
      <use xlink:href="#DejaVuSans-53"/>
     </g>
    </g>
   </g>
   <g id="text_17">
    <g clip-path="url(#p1ea7fa8fc4)">
     <!-- 6 -->
     <g transform="translate(424.447996 460.62912)scale(0.12 -0.12)">
      <use xlink:href="#DejaVuSans-54"/>
     </g>
    </g>
   </g>
   <g id="text_18">
    <g clip-path="url(#p1ea7fa8fc4)">
     <!-- 7 -->
     <g transform="translate(461.557315 297.023351)scale(0.12 -0.12)">
      <use xlink:href="#DejaVuSans-55"/>
     </g>
    </g>
   </g>
   <g id="text_19">
    <g clip-path="url(#p1ea7fa8fc4)">
     <!-- 8 -->
     <g transform="translate(500.869065 171.174042)scale(0.12 -0.12)">
      <use xlink:href="#DejaVuSans-56"/>
     </g>
    </g>
   </g>
   <g id="text_20">
    <g clip-path="url(#p1ea7fa8fc4)">
     <!-- 9 -->
     <defs>
      <path d="M 10.984375 1.515625 
L 10.984375 10.5 
Q 14.703125 8.734375 18.5 7.8125 
Q 22.3125 6.890625 25.984375 6.890625 
Q 35.75 6.890625 40.890625 13.453125 
Q 46.046875 20.015625 46.78125 33.40625 
Q 43.953125 29.203125 39.59375 26.953125 
Q 35.25 24.703125 29.984375 24.703125 
Q 19.046875 24.703125 12.671875 31.3125 
Q 6.296875 37.9375 6.296875 49.421875 
Q 6.296875 60.640625 12.9375 67.421875 
Q 19.578125 74.21875 30.609375 74.21875 
Q 43.265625 74.21875 49.921875 64.515625 
Q 56.59375 54.828125 56.59375 36.375 
Q 56.59375 19.140625 48.40625 8.859375 
Q 40.234375 -1.421875 26.421875 -1.421875 
Q 22.703125 -1.421875 18.890625 -0.6875 
Q 15.09375 0.046875 10.984375 1.515625 
z
M 30.609375 32.421875 
Q 37.25 32.421875 41.125 36.953125 
Q 45.015625 41.5 45.015625 49.421875 
Q 45.015625 57.28125 41.125 61.84375 
Q 37.25 66.40625 30.609375 66.40625 
Q 23.96875 66.40625 20.09375 61.84375 
Q 16.21875 57.28125 16.21875 49.421875 
Q 16.21875 41.5 20.09375 36.953125 
Q 23.96875 32.421875 30.609375 32.421875 
z
" id="DejaVuSans-57"/>
     </defs>
     <g transform="translate(431.708076 625.431718)scale(0.12 -0.12)">
      <use xlink:href="#DejaVuSans-57"/>
     </g>
    </g>
   </g>
  </g>
  <g id="axes_2">
   <g id="LineCollection_2">
    <path clip-path="url(#pe332ebabda)" d="M 1012.37632 168.365924 
L 936.545054 171.789344 
" style="fill:none;stroke:#ff0000;"/>
    <path clip-path="url(#pe332ebabda)" d="M 1012.37632 168.365924 
L 1041.644145 287.802007 
" style="fill:none;stroke:#ff0000;"/>
    <path clip-path="url(#pe332ebabda)" d="M 936.545054 171.789344 
L 867.629713 274.553754 
" style="fill:none;stroke:#ff0000;"/>
    <path clip-path="url(#pe332ebabda)" d="M 867.629713 274.553754 
L 806.572469 433.046996 
" style="fill:none;stroke:#ff0000;"/>
    <path clip-path="url(#pe332ebabda)" d="M 667.832219 907.890076 
L 690.087722 511.939902 
" style="fill:none;stroke:#ff0000;"/>
    <path clip-path="url(#pe332ebabda)" d="M 690.087722 511.939902 
L 743.006087 446.921848 
" style="fill:none;stroke:#ff0000;"/>
    <path clip-path="url(#pe332ebabda)" d="M 743.006087 446.921848 
L 806.572469 433.046996 
" style="fill:none;stroke:#ff0000;"/>
    <path clip-path="url(#pe332ebabda)" d="M 806.572469 433.046996 
L 826.56972 600.913805 
" style="fill:none;stroke:#ff0000;"/>
    <path clip-path="url(#pe332ebabda)" d="M 826.56972 600.913805 
L 843.400632 751.597096 
" style="fill:none;stroke:#ff0000;"/>
   </g>
   <g id="text_21">
    <g id="patch_12">
     <path clip-path="url(#pe332ebabda)" d="M 957.231969 183.410704 
L 992.820721 181.804041 
Q 997.615837 181.587564 997.399361 176.792448 
L 996.700998 161.323204 
Q 996.484521 156.528088 991.689405 156.744565 
L 956.100653 158.351227 
Q 951.305537 158.567704 951.522014 163.36282 
L 952.220377 178.832064 
Q 952.436853 183.62718 957.231969 183.410704 
z
" style="fill:#ffffff;stroke:#ffffff;stroke-linejoin:miter;"/>
    </g>
    <g clip-path="url(#pe332ebabda)">
     <!-- 0.28 -->
     <g style="opacity:0.5;" transform="translate(956.865425 175.291473)rotate(-2.584876)scale(0.16 -0.16)">
      <use xlink:href="#DejaVuSans-48"/>
      <use x="63.623047" xlink:href="#DejaVuSans-46"/>
      <use x="95.410156" xlink:href="#DejaVuSans-50"/>
      <use x="159.033203" xlink:href="#DejaVuSans-56"/>
     </g>
    </g>
   </g>
   <g id="text_22">
    <g id="patch_13">
     <path clip-path="url(#pe332ebabda)" d="M 1010.588644 213.768558 
L 1019.067684 248.369808 
Q 1020.210123 253.031871 1024.872187 251.889432 
L 1039.912197 248.203876 
Q 1044.57426 247.061436 1043.431821 242.399373 
L 1034.952781 207.798123 
Q 1033.810342 203.13606 1029.148278 204.278499 
L 1014.108268 207.964055 
Q 1009.446205 209.106494 1010.588644 213.768558 
z
" style="fill:#ffffff;stroke:#ffffff;stroke-linejoin:miter;"/>
    </g>
    <g clip-path="url(#pe332ebabda)">
     <!-- 0.48 -->
     <g style="opacity:0.5;" transform="translate(1018.482586 211.834146)rotate(-283.769009)scale(0.16 -0.16)">
      <use xlink:href="#DejaVuSans-48"/>
      <use x="63.623047" xlink:href="#DejaVuSans-46"/>
      <use x="95.410156" xlink:href="#DejaVuSans-52"/>
      <use x="159.033203" xlink:href="#DejaVuSans-56"/>
     </g>
    </g>
   </g>
   <g id="text_23">
    <g id="patch_14">
     <path clip-path="url(#pe332ebabda)" d="M 902.583355 244.951207 
L 922.425351 215.363442 
Q 925.098799 211.376879 921.112237 208.703432 
L 908.251421 200.078778 
Q 904.264859 197.40533 901.591412 201.391892 
L 881.749416 230.979657 
Q 879.075968 234.966219 883.06253 237.639667 
L 895.923346 246.264321 
Q 899.909908 248.937769 902.583355 244.951207 
z
" style="fill:#ffffff;stroke:#ffffff;stroke-linejoin:miter;"/>
    </g>
    <g clip-path="url(#pe332ebabda)">
     <!-- 0.37 -->
     <g style="opacity:0.5;" transform="translate(895.833192 240.424447)rotate(-56.153607)scale(0.16 -0.16)">
      <use xlink:href="#DejaVuSans-48"/>
      <use x="63.623047" xlink:href="#DejaVuSans-46"/>
      <use x="95.410156" xlink:href="#DejaVuSans-51"/>
      <use x="159.033203" xlink:href="#DejaVuSans-55"/>
     </g>
    </g>
   </g>
   <g id="text_24">
    <g id="patch_15">
     <path clip-path="url(#pe332ebabda)" d="M 842.401849 374.930955 
L 855.208439 341.687431 
Q 856.933959 337.208304 852.454831 335.482784 
L 838.004979 329.916187 
Q 833.525852 328.190667 831.800333 332.669795 
L 818.993743 365.913319 
Q 817.268223 370.392446 821.747351 372.117966 
L 836.197203 377.684563 
Q 840.67633 379.410083 842.401849 374.930955 
z
" style="fill:#ffffff;stroke:#ffffff;stroke-linejoin:miter;"/>
    </g>
    <g clip-path="url(#pe332ebabda)">
     <!-- 0.41 -->
     <g style="opacity:0.5;" transform="translate(834.81766 372.009255)rotate(-68.931538)scale(0.16 -0.16)">
      <use xlink:href="#DejaVuSans-48"/>
      <use x="63.623047" xlink:href="#DejaVuSans-46"/>
      <use x="95.410156" xlink:href="#DejaVuSans-52"/>
      <use x="159.033203" xlink:href="#DejaVuSans-49"/>
     </g>
    </g>
   </g>
   <g id="text_25">
    <g id="patch_16">
     <path clip-path="url(#pe332ebabda)" d="M 690.48308 728.403294 
L 692.482328 692.834436 
Q 692.751701 688.042001 687.959265 687.772628 
L 672.498669 686.903621 
Q 667.706233 686.634249 667.436861 691.426685 
L 665.437612 726.995542 
Q 665.16824 731.787978 669.960675 732.05735 
L 685.421272 732.926357 
Q 690.213707 733.195729 690.48308 728.403294 
z
" style="fill:#ffffff;stroke:#ffffff;stroke-linejoin:miter;"/>
    </g>
    <g clip-path="url(#pe332ebabda)">
     <!-- 0.04 -->
     <g style="opacity:0.5;" transform="translate(682.368388 727.947184)rotate(-86.782913)scale(0.16 -0.16)">
      <use xlink:href="#DejaVuSans-48"/>
      <use x="63.623047" xlink:href="#DejaVuSans-46"/>
      <use x="95.410156" xlink:href="#DejaVuSans-48"/>
      <use x="159.033203" xlink:href="#DejaVuSans-52"/>
     </g>
    </g>
   </g>
   <g id="text_26">
    <g id="patch_17">
     <path clip-path="url(#pe332ebabda)" d="M 718.243585 497.215632 
L 734.305681 477.480965 
Q 737.33567 473.758175 733.61288 470.728186 
L 721.603003 460.953316 
Q 717.880213 457.923327 714.850224 461.646118 
L 698.788127 481.380784 
Q 695.758138 485.103575 699.480929 488.133564 
L 711.490805 497.908434 
Q 715.213596 500.938423 718.243585 497.215632 
z
" style="fill:#ffffff;stroke:#ffffff;stroke-linejoin:miter;"/>
    </g>
    <g clip-path="url(#pe332ebabda)">
     <!-- 0.6 -->
     <g style="opacity:0.5;" transform="translate(711.940047 492.085167)rotate(-50.857767)scale(0.16 -0.16)">
      <use xlink:href="#DejaVuSans-48"/>
      <use x="63.623047" xlink:href="#DejaVuSans-46"/>
      <use x="95.410156" xlink:href="#DejaVuSans-54"/>
     </g>
    </g>
   </g>
   <g id="text_27">
    <g id="patch_18">
     <path clip-path="url(#pe332ebabda)" d="M 760.061236 456.036968 
L 794.866759 448.439848 
Q 799.556345 447.416236 798.532733 442.72665 
L 795.230518 427.597849 
Q 794.206906 422.908263 789.51732 423.931875 
L 754.711797 431.528996 
Q 750.022211 432.552608 751.045823 437.242194 
L 754.348038 452.370994 
Q 755.37165 457.06058 760.061236 456.036968 
z
" style="fill:#ffffff;stroke:#ffffff;stroke-linejoin:miter;"/>
    </g>
    <g clip-path="url(#pe332ebabda)">
     <!-- 0.68 -->
     <g style="opacity:0.5;" transform="translate(758.328027 448.096424)rotate(-12.313026)scale(0.16 -0.16)">
      <use xlink:href="#DejaVuSans-48"/>
      <use x="63.623047" xlink:href="#DejaVuSans-46"/>
      <use x="95.410156" xlink:href="#DejaVuSans-54"/>
      <use x="159.033203" xlink:href="#DejaVuSans-56"/>
     </g>
    </g>
   </g>
   <g id="text_28">
    <g id="patch_19">
     <path clip-path="url(#pe332ebabda)" d="M 802.009625 500.776603 
L 806.223682 536.151486 
Q 806.791471 540.917786 811.557771 540.349997 
L 826.934053 538.518287 
Q 831.700353 537.950498 831.132565 533.184198 
L 826.918507 497.809315 
Q 826.350718 493.043015 821.584418 493.610804 
L 806.208136 495.442514 
Q 801.441836 496.010303 802.009625 500.776603 
z
" style="fill:#ffffff;stroke:#ffffff;stroke-linejoin:miter;"/>
    </g>
    <g clip-path="url(#pe332ebabda)">
     <!-- 0.64 -->
     <g style="opacity:0.5;" transform="translate(810.080063 499.815207)rotate(-276.793385)scale(0.16 -0.16)">
      <use xlink:href="#DejaVuSans-48"/>
      <use x="63.623047" xlink:href="#DejaVuSans-46"/>
      <use x="95.410156" xlink:href="#DejaVuSans-54"/>
      <use x="159.033203" xlink:href="#DejaVuSans-52"/>
     </g>
    </g>
   </g>
   <g id="text_29">
    <g id="patch_20">
     <path clip-path="url(#pe332ebabda)" d="M 820.542882 659.945343 
L 824.497504 695.350167 
Q 825.030338 700.120502 829.800672 699.587668 
L 845.189969 697.868726 
Q 849.960303 697.335893 849.42747 692.565558 
L 845.472847 657.160734 
Q 844.940014 652.3904 840.16968 652.923233 
L 824.780383 654.642176 
Q 820.010049 655.175009 820.542882 659.945343 
z
" style="fill:#ffffff;stroke:#ffffff;stroke-linejoin:miter;"/>
    </g>
    <g clip-path="url(#pe332ebabda)">
     <!-- 0.58 -->
     <g style="opacity:0.5;" transform="translate(828.620151 659.043134)rotate(-276.373364)scale(0.16 -0.16)">
      <use xlink:href="#DejaVuSans-48"/>
      <use x="63.623047" xlink:href="#DejaVuSans-46"/>
      <use x="95.410156" xlink:href="#DejaVuSans-53"/>
      <use x="159.033203" xlink:href="#DejaVuSans-56"/>
     </g>
    </g>
   </g>
   <g id="PathCollection_2">
    <defs>
     <path d="M 0 6.324555 
C 1.677292 6.324555 3.286112 5.65816 4.472136 4.472136 
C 5.65816 3.286112 6.324555 1.677292 6.324555 0 
C 6.324555 -1.677292 5.65816 -3.286112 4.472136 -4.472136 
C 3.286112 -5.65816 1.677292 -6.324555 0 -6.324555 
C -1.677292 -6.324555 -3.286112 -5.65816 -4.472136 -4.472136 
C -5.65816 -3.286112 -6.324555 -1.677292 -6.324555 0 
C -6.324555 1.677292 -5.65816 3.286112 -4.472136 4.472136 
C -3.286112 5.65816 -1.677292 6.324555 0 6.324555 
z
" id="md95734bc14" style="stroke:#ffaa00;"/>
    </defs>
    <g clip-path="url(#pe332ebabda)">
     <use style="fill:#ffaa00;stroke:#ffaa00;" x="1012.37632" xlink:href="#md95734bc14" y="168.365924"/>
     <use style="fill:#ffaa00;stroke:#ffaa00;" x="936.545054" xlink:href="#md95734bc14" y="171.789344"/>
     <use style="fill:#ffaa00;stroke:#ffaa00;" x="867.629713" xlink:href="#md95734bc14" y="274.553754"/>
     <use style="fill:#ffaa00;stroke:#ffaa00;" x="667.832219" xlink:href="#md95734bc14" y="907.890076"/>
     <use style="fill:#ffaa00;stroke:#ffaa00;" x="690.087722" xlink:href="#md95734bc14" y="511.939902"/>
     <use style="fill:#ffaa00;stroke:#ffaa00;" x="743.006087" xlink:href="#md95734bc14" y="446.921848"/>
     <use style="fill:#ffaa00;stroke:#ffaa00;" x="806.572469" xlink:href="#md95734bc14" y="433.046996"/>
     <use style="fill:#ffaa00;stroke:#ffaa00;" x="826.56972" xlink:href="#md95734bc14" y="600.913805"/>
     <use style="fill:#ffaa00;stroke:#ffaa00;" x="843.400632" xlink:href="#md95734bc14" y="751.597096"/>
     <use style="fill:#ffaa00;stroke:#ffaa00;" x="1041.644145" xlink:href="#md95734bc14" y="287.802007"/>
    </g>
   </g>
   <g id="text_30">
    <g clip-path="url(#pe332ebabda)">
     <!-- 0 -->
     <g transform="translate(1008.55882 171.677174)scale(0.12 -0.12)">
      <use xlink:href="#DejaVuSans-48"/>
     </g>
    </g>
   </g>
   <g id="text_31">
    <g clip-path="url(#pe332ebabda)">
     <!-- 1 -->
     <g transform="translate(932.727554 175.100594)scale(0.12 -0.12)">
      <use xlink:href="#DejaVuSans-49"/>
     </g>
    </g>
   </g>
   <g id="text_32">
    <g clip-path="url(#pe332ebabda)">
     <!-- 2 -->
     <g transform="translate(863.812213 277.865004)scale(0.12 -0.12)">
      <use xlink:href="#DejaVuSans-50"/>
     </g>
    </g>
   </g>
   <g id="text_33">
    <g clip-path="url(#pe332ebabda)">
     <!-- 3 -->
     <g transform="translate(664.014719 911.201326)scale(0.12 -0.12)">
      <use xlink:href="#DejaVuSans-51"/>
     </g>
    </g>
   </g>
   <g id="text_34">
    <g clip-path="url(#pe332ebabda)">
     <!-- 4 -->
     <g transform="translate(686.270222 515.251152)scale(0.12 -0.12)">
      <use xlink:href="#DejaVuSans-52"/>
     </g>
    </g>
   </g>
   <g id="text_35">
    <g clip-path="url(#pe332ebabda)">
     <!-- 5 -->
     <g transform="translate(739.188587 450.233098)scale(0.12 -0.12)">
      <use xlink:href="#DejaVuSans-53"/>
     </g>
    </g>
   </g>
   <g id="text_36">
    <g clip-path="url(#pe332ebabda)">
     <!-- 6 -->
     <g transform="translate(802.754969 436.358246)scale(0.12 -0.12)">
      <use xlink:href="#DejaVuSans-54"/>
     </g>
    </g>
   </g>
   <g id="text_37">
    <g clip-path="url(#pe332ebabda)">
     <!-- 7 -->
     <g transform="translate(822.75222 604.225055)scale(0.12 -0.12)">
      <use xlink:href="#DejaVuSans-55"/>
     </g>
    </g>
   </g>
   <g id="text_38">
    <g clip-path="url(#pe332ebabda)">
     <!-- 8 -->
     <g transform="translate(839.583132 754.908346)scale(0.12 -0.12)">
      <use xlink:href="#DejaVuSans-56"/>
     </g>
    </g>
   </g>
   <g id="text_39">
    <g clip-path="url(#pe332ebabda)">
     <!-- 9 -->
     <g transform="translate(1037.826645 291.113257)scale(0.12 -0.12)">
      <use xlink:href="#DejaVuSans-57"/>
     </g>
    </g>
   </g>
  </g>
 </g>
 <defs>
  <clipPath id="p1ea7fa8fc4">
   <rect height="820.512" width="415.963636" x="147.6" y="127.872"/>
  </clipPath>
  <clipPath id="pe332ebabda">
   <rect height="820.512" width="415.963636" x="646.756364" y="127.872"/>
  </clipPath>
 </defs>
</svg>
